<svg width="250" height="250" viewBox="0 0 250 250" fill="none" xmlns="http://www.w3.org/2000/svg">
<path d="M125.05 37.5904C115.883 37.5904 111.3 32.992 111.3 23.7952C111.3 19.5647 112.583 16.1986 115.15 13.6971C117.717 11.2324 121.017 10 125.05 10C129.083 10 132.383 11.2324 134.95 13.6971C137.517 16.1986 138.8 19.5647 138.8 23.7952C138.8 28.2096 137.572 31.6124 135.115 34.0036C132.622 36.3948 129.267 37.5904 125.05 37.5904ZM65.925 225.205C53.6417 225.205 43.375 221.342 35.125 213.617C26.875 205.892 22.75 195.499 22.75 182.44C22.75 174.163 25.0967 166.106 29.79 158.271C34.4467 150.472 40.9367 143.574 49.26 137.578C57.62 131.618 67.3 127.259 78.3 124.5V123.396C67.3 121.005 57.62 116.811 49.26 110.815C40.9367 104.856 34.4467 97.8661 29.79 89.8465C25.0967 81.8637 22.75 73.6418 22.75 65.1807C22.75 52.6731 26.7283 42.4095 34.685 34.3899C42.6783 26.4071 53.0917 22.4157 65.925 22.4157C74.5417 22.4157 82.7917 24.6229 90.675 29.0373C98.5583 33.4518 105.525 39.1906 111.575 46.2537C117.625 53.3537 121.933 61.1341 124.5 69.5952H125.6C128.35 61.1341 132.658 53.3537 138.525 46.2537C144.392 39.1906 151.267 33.4518 159.15 29.0373C167.033 24.6229 175.192 22.4157 183.625 22.4157C196.642 22.4157 207.092 26.4071 214.975 34.3899C222.858 42.4095 226.8 52.6731 226.8 65.1807C226.8 73.4578 224.472 81.4958 219.815 89.2947C215.122 97.1304 208.613 103.991 200.29 109.877C191.93 115.763 182.25 120.178 171.25 123.12V124.224C182.25 126.615 191.93 130.791 200.29 136.75C208.613 142.746 215.122 149.699 219.815 157.608C224.472 165.518 226.8 173.795 226.8 182.44C226.8 195.499 222.73 205.892 214.59 213.617C206.413 221.342 196.092 225.205 183.625 225.205C175.192 225.205 167.033 222.998 159.15 218.583C151.267 214.169 144.392 208.411 138.525 201.312C132.658 194.248 128.35 186.486 125.6 178.025H124.5C121.933 186.486 117.625 194.248 111.575 201.312C105.525 208.411 98.5583 214.169 90.675 218.583C82.7917 222.998 74.5417 225.205 65.925 225.205ZM106.075 115.947H115.425V102.428C115.425 94.8863 114.105 87.5289 111.465 80.3554C108.788 73.1819 105.158 66.597 100.575 60.6007C95.9917 54.6412 90.73 49.9141 84.79 46.4193C78.8133 42.9245 72.525 41.1771 65.925 41.1771C59.5083 41.1771 54.2833 43.4211 50.25 47.9092C46.2167 52.434 44.2 58.1912 44.2 65.1807C44.2 72.1703 46.2167 78.7368 50.25 84.8802C54.2833 91.0605 59.5083 96.4866 65.925 101.159C72.3417 105.867 79.125 109.509 86.275 112.084C93.425 114.659 100.025 115.947 106.075 115.947ZM134.125 115.947H143.475C149.525 115.947 156.125 114.659 163.275 112.084C170.425 109.509 177.208 105.867 183.625 101.159C190.042 96.4866 195.267 91.0605 199.3 84.8802C203.333 78.7368 205.35 72.1703 205.35 65.1807C205.35 58.1912 203.333 52.434 199.3 47.9092C195.267 43.4211 190.042 41.1771 183.625 41.1771C177.025 41.1771 170.755 42.9245 164.815 46.4193C158.838 49.9141 153.558 54.6412 148.975 60.6007C144.392 66.597 140.78 73.1819 138.14 80.3554C135.463 87.5289 134.125 94.8863 134.125 102.428V115.947ZM22.75 137.743C13.5833 137.743 9 133.145 9 123.948C9 119.718 10.2833 116.352 12.85 113.85C15.4167 111.385 18.7167 110.153 22.75 110.153C26.7833 110.153 30.0833 111.385 32.65 113.85C35.2167 116.352 36.5 119.718 36.5 123.948C36.5 128.363 35.2717 131.765 32.815 134.157C30.3217 136.548 26.9667 137.743 22.75 137.743ZM226.25 137.743C217.083 137.743 212.5 133.145 212.5 123.948C212.5 119.718 213.783 116.352 216.35 113.85C218.917 111.385 222.217 110.153 226.25 110.153C230.283 110.153 233.583 111.385 236.15 113.85C238.717 116.352 240 119.718 240 123.948C240 128.363 238.772 131.765 236.315 134.157C233.822 136.548 230.467 137.743 226.25 137.743ZM65.925 206.443C72.8917 206.443 79.3633 204.696 85.34 201.201C91.28 197.706 96.505 193.016 101.015 187.13C105.488 181.244 109.008 174.659 111.575 167.375C114.142 160.128 115.425 152.734 115.425 145.193V131.673H106.075C100.025 131.673 93.425 133.053 86.275 135.812C79.125 138.571 72.3417 142.287 65.925 146.959C59.5083 151.667 54.2833 157.093 50.25 163.237C46.2167 169.417 44.2 175.818 44.2 182.44C44.2 189.797 46.2717 195.628 50.415 199.932C54.5217 204.273 59.6917 206.443 65.925 206.443ZM183.625 206.443C189.858 206.443 195.047 204.273 199.19 199.932C203.297 195.628 205.35 189.797 205.35 182.44C205.35 175.818 203.333 169.417 199.3 163.237C195.267 157.093 190.042 151.667 183.625 146.959C177.208 142.287 170.425 138.571 163.275 135.812C156.125 133.053 149.525 131.673 143.475 131.673H134.125V145.193C134.125 152.182 135.408 159.264 137.975 166.437C140.542 173.611 144.08 180.233 148.59 186.302C153.063 192.372 158.325 197.247 164.375 200.925C170.425 204.604 176.842 206.443 183.625 206.443ZM125.05 239C115.883 239 111.3 234.402 111.3 225.205C111.3 220.974 112.583 217.608 115.15 215.107C117.717 212.642 121.017 211.41 125.05 211.41C129.083 211.41 132.383 212.642 134.95 215.107C137.517 217.608 138.8 220.974 138.8 225.205C138.8 229.619 137.572 233.022 135.115 235.413C132.622 237.804 129.267 239 125.05 239Z" fill="white"/>
</svg>
